<?xml version="1.0" encoding="utf-8"?>
<!-- Generator: Adobe Illustrator 15.1.0, SVG Export Plug-In . SVG Version: 6.00 Build 0)  -->
<!DOCTYPE svg PUBLIC "-//W3C//DTD SVG 1.1//EN" "http://www.w3.org/Graphics/SVG/1.1/DTD/svg11.dtd">
<svg version="1.1" id="Layer_1" xmlns="http://www.w3.org/2000/svg" xmlns:xlink="http://www.w3.org/1999/xlink" x="0px" y="0px"
	 width="553.332px" height="339.4px" viewBox="116.5 0 553.332 339.4" enable-background="new 116.5 0 553.332 339.4"
	 xml:space="preserve">
<path fill="none" stroke="#E2E2E2" stroke-width="6" stroke-miterlimit="10" d="M639.75,296.546c0,5.227-2.182,8.696-8.036,8.696
	H158.746c-4.084,0-9.996-1.27-9.996-8.696V23.673c0-2.839,5.75-8.589,11-8.589H628c5.174,0,11.75,6.574,11.75,11.25V296.546z"/>
<image overflow="visible" width="2864" height="1576" xlink:href="Screen Shot 2022-03-04 at 1.57.08 PM.png"  transform="matrix(0.1655 0 0 0.1655 159.5059 29.7498)">
</image>
<rect x="156.513" y="23.777" fill="#DDDDDD" width="473.987" height="13.983"/>
<path fill="none" stroke="#212121" stroke-width="12" stroke-miterlimit="10" d="M633.464,290.745
	c0.001,7.589,0.911,8.339-7.839,8.339H164.25c-3.984,0-9.75,1-9.75-8.339V29.07c0-4.616,3.906-8.236,8.688-8.236h461.463
	c5.047,0,8.812,3.753,8.812,8.236V290.745L633.464,290.745z"/>
<linearGradient id="SVGID_1_" gradientUnits="userSpaceOnUse" x1="394.1099" y1="293.7039" x2="392.647" y2="450.2097">
	<stop  offset="0" style="stop-color:#FFFFFF"/>
	<stop  offset="0.3361" style="stop-color:#818181"/>
	<stop  offset="1" style="stop-color:#000000"/>
</linearGradient>
<path fill="url(#SVGID_1_)" d="M662.999,306.82c0,14.938-24.026,21.38-25.081,21.38H152.749c-5.447,0-27.75-7.377-27.75-21.754
	v-2.154c0-0.713,3.194-1.292,4.25-1.292h530.084c1.055,0,3.666,0,3.666,1.292V306.82z"/>
<circle fill="#898989" cx="396.499" cy="20.834" r="2.5"/>
<linearGradient id="SVGID_2_" gradientUnits="userSpaceOnUse" x1="462.1914" y1="454.6228" x2="462.255" y2="435.5484" gradientTransform="matrix(1 0 0 1 -62 -141)">
	<stop  offset="0" style="stop-color:#FFFFFF"/>
	<stop  offset="1" style="stop-color:#000000"/>
</linearGradient>
<path fill="url(#SVGID_2_)" d="M467.892,305.571c0,4.46-6.619,6.88-7.726,6.88H340.749c-1.104,0-8.191-2.344-8.191-6.503
	l-0.015-1.854c0-1.002-0.194-1.096,0.911-1.096h133.542c1.104,0,0.911,0.038,0.911,1.04L467.892,305.571z"/>
</svg>
