<?xml version="1.0" encoding="utf-8"?>
<!-- Generator: Adobe Illustrator 15.1.0, SVG Export Plug-In . SVG Version: 6.00 Build 0)  -->
<!DOCTYPE svg PUBLIC "-//W3C//DTD SVG 1.1//EN" "http://www.w3.org/Graphics/SVG/1.1/DTD/svg11.dtd">
<svg version="1.1" xmlns="http://www.w3.org/2000/svg" xmlns:xlink="http://www.w3.org/1999/xlink" x="0px" y="0px" width="586.5px"
	 height="314.5px" viewBox="0 0 586.5 314.5" enable-background="new 0 0 586.5 314.5" xml:space="preserve">
<g id="Layer_1">
</g>
<g id="Layer_2">
	<circle fill="#EDEDED" cx="282.67" cy="305.332" r="4.742"/>
	<circle fill="#EDEDED" cx="302.262" cy="305.332" r="4.742"/>
	<circle fill="#EDEDED" cx="341.542" cy="305.332" r="4.742"/>
	<circle fill="#EDEDED" cx="321.966" cy="305.332" r="4.742"/>
	<circle fill="#EDEDED" cx="361.502" cy="305.332" r="4.742"/>
	<circle fill="#EDEDED" cx="381.094" cy="305.332" r="4.742"/>
	<circle fill="#EDEDED" cx="420.375" cy="305.332" r="4.742"/>
	<circle fill="#EDEDED" cx="400.798" cy="305.332" r="4.742"/>
	<circle fill="#EDEDED" cx="440.354" cy="305.332" r="4.742"/>
	<circle fill="#EDEDED" cx="459.946" cy="305.332" r="4.742"/>
	<circle fill="#EDEDED" cx="499.226" cy="305.332" r="4.742"/>
	<circle fill="#EDEDED" cx="479.65" cy="305.332" r="4.742"/>
	<circle fill="#EDEDED" cx="519.186" cy="305.332" r="4.742"/>
	<circle fill="#EDEDED" cx="538.778" cy="305.332" r="4.742"/>
	<circle fill="#EDEDED" cx="578.058" cy="305.332" r="4.742"/>
	<circle fill="#EDEDED" cx="558.482" cy="305.332" r="4.742"/>
	<circle fill="#EDEDED" cx="282.67" cy="285.499" r="4.742"/>
	<circle fill="#EDEDED" cx="302.457" cy="285.499" r="4.742"/>
	<circle fill="#EDEDED" cx="341.737" cy="285.499" r="4.742"/>
	<circle fill="#EDEDED" cx="322.161" cy="285.499" r="4.742"/>
	<circle fill="#EDEDED" cx="361.697" cy="285.499" r="4.742"/>
	<circle fill="#EDEDED" cx="381.289" cy="285.499" r="4.742"/>
	<circle fill="#EDEDED" cx="420.569" cy="285.499" r="4.742"/>
	<circle fill="#EDEDED" cx="400.993" cy="285.499" r="4.742"/>
	<circle fill="#EDEDED" cx="440.548" cy="285.499" r="4.742"/>
	<circle fill="#EDEDED" cx="460.14" cy="285.499" r="4.742"/>
	<circle fill="#EDEDED" cx="499.42" cy="285.499" r="4.742"/>
	<circle fill="#EDEDED" cx="479.844" cy="285.499" r="4.742"/>
	<circle fill="#EDEDED" cx="519.38" cy="285.499" r="4.742"/>
	<circle fill="#EDEDED" cx="538.972" cy="285.499" r="4.742"/>
	<circle fill="#EDEDED" cx="578.252" cy="285.499" r="4.742"/>
	<circle fill="#EDEDED" cx="558.676" cy="285.499" r="4.742"/>
	<circle fill="#EDEDED" cx="282.67" cy="265.664" r="4.742"/>
	<circle fill="#EDEDED" cx="302.262" cy="265.831" r="4.742"/>
	<circle fill="#EDEDED" cx="341.542" cy="265.831" r="4.742"/>
	<circle fill="#EDEDED" cx="321.966" cy="265.831" r="4.742"/>
	<circle fill="#EDEDED" cx="361.502" cy="265.831" r="4.742"/>
	<circle fill="#EDEDED" cx="381.094" cy="265.831" r="4.742"/>
	<circle fill="#EDEDED" cx="420.375" cy="265.831" r="4.742"/>
	<circle fill="#EDEDED" cx="400.798" cy="265.831" r="4.742"/>
	<circle fill="#EDEDED" cx="440.354" cy="265.831" r="4.742"/>
	<circle fill="#EDEDED" cx="459.946" cy="265.831" r="4.742"/>
	<circle fill="#EDEDED" cx="499.226" cy="265.831" r="4.742"/>
	<circle fill="#EDEDED" cx="479.65" cy="265.831" r="4.742"/>
	<circle fill="#EDEDED" cx="519.186" cy="265.831" r="4.742"/>
	<circle fill="#EDEDED" cx="538.778" cy="265.831" r="4.742"/>
	<circle fill="#EDEDED" cx="578.058" cy="265.831" r="4.742"/>
	<circle fill="#EDEDED" cx="558.482" cy="265.831" r="4.742"/>
	<circle fill="#EDEDED" cx="282.67" cy="245.998" r="4.742"/>
	<circle fill="#EDEDED" cx="302.457" cy="245.998" r="4.742"/>
	<circle fill="#EDEDED" cx="341.737" cy="245.998" r="4.742"/>
	<circle fill="#EDEDED" cx="322.161" cy="245.998" r="4.742"/>
	<circle fill="#EDEDED" cx="361.697" cy="245.998" r="4.742"/>
	<circle fill="#EDEDED" cx="381.289" cy="245.998" r="4.742"/>
	<circle fill="#EDEDED" cx="420.569" cy="245.998" r="4.742"/>
	<circle fill="#EDEDED" cx="400.993" cy="245.998" r="4.742"/>
	<circle fill="#EDEDED" cx="440.548" cy="245.998" r="4.742"/>
	<circle fill="#EDEDED" cx="460.14" cy="245.998" r="4.742"/>
	<circle fill="#EDEDED" cx="499.42" cy="245.998" r="4.742"/>
	<circle fill="#EDEDED" cx="479.844" cy="245.998" r="4.742"/>
	<circle fill="#EDEDED" cx="519.38" cy="245.998" r="4.742"/>
	<circle fill="#EDEDED" cx="538.972" cy="245.998" r="4.742"/>
	<circle fill="#EDEDED" cx="578.252" cy="245.998" r="4.742"/>
	<circle fill="#EDEDED" cx="558.676" cy="245.998" r="4.742"/>
	<circle fill="#EDEDED" cx="282.573" cy="226.834" r="4.742"/>
	<circle fill="#EDEDED" cx="302.165" cy="226.834" r="4.742"/>
	<circle fill="#EDEDED" cx="341.445" cy="226.834" r="4.742"/>
	<circle fill="#EDEDED" cx="321.869" cy="226.834" r="4.742"/>
	<circle fill="#EDEDED" cx="361.405" cy="226.834" r="4.742"/>
	<circle fill="#EDEDED" cx="380.997" cy="226.834" r="4.742"/>
	<circle fill="#EDEDED" cx="420.277" cy="226.834" r="4.742"/>
	<circle fill="#EDEDED" cx="400.701" cy="226.834" r="4.742"/>
	<circle fill="#EDEDED" cx="440.256" cy="226.834" r="4.742"/>
	<circle fill="#EDEDED" cx="459.848" cy="226.834" r="4.742"/>
	<circle fill="#EDEDED" cx="499.128" cy="226.834" r="4.742"/>
	<circle fill="#EDEDED" cx="479.552" cy="226.834" r="4.742"/>
	<circle fill="#EDEDED" cx="519.088" cy="226.834" r="4.742"/>
	<circle fill="#EDEDED" cx="538.68" cy="226.834" r="4.742"/>
	<circle fill="#EDEDED" cx="577.96" cy="226.834" r="4.742"/>
	<circle fill="#EDEDED" cx="558.384" cy="226.834" r="4.742"/>
	<circle fill="#EDEDED" cx="282.573" cy="207.001" r="4.742"/>
	<circle fill="#EDEDED" cx="302.359" cy="207.001" r="4.742"/>
	<circle fill="#EDEDED" cx="341.639" cy="207.001" r="4.742"/>
	<circle fill="#EDEDED" cx="322.063" cy="207.001" r="4.742"/>
	<circle fill="#EDEDED" cx="361.599" cy="207.001" r="4.742"/>
	<circle fill="#EDEDED" cx="381.191" cy="207.001" r="4.742"/>
	<circle fill="#EDEDED" cx="420.471" cy="207.001" r="4.742"/>
	<circle fill="#EDEDED" cx="400.895" cy="207.001" r="4.742"/>
	<circle fill="#EDEDED" cx="440.451" cy="207.001" r="4.742"/>
	<circle fill="#EDEDED" cx="460.042" cy="207.001" r="4.742"/>
	<circle fill="#EDEDED" cx="499.323" cy="207.001" r="4.742"/>
	<circle fill="#EDEDED" cx="479.747" cy="207.001" r="4.742"/>
	<circle fill="#EDEDED" cx="519.283" cy="207.001" r="4.742"/>
	<circle fill="#EDEDED" cx="538.875" cy="207.001" r="4.742"/>
	<circle fill="#EDEDED" cx="578.155" cy="207.001" r="4.742"/>
	<circle fill="#EDEDED" cx="558.579" cy="207.001" r="4.742"/>
	<circle fill="#EDEDED" cx="282.573" cy="187.166" r="4.742"/>
	<circle fill="#EDEDED" cx="302.165" cy="187.333" r="4.742"/>
	<circle fill="#EDEDED" cx="341.445" cy="187.333" r="4.742"/>
	<circle fill="#EDEDED" cx="321.869" cy="187.333" r="4.742"/>
	<circle fill="#EDEDED" cx="361.405" cy="187.333" r="4.742"/>
	<circle fill="#EDEDED" cx="380.997" cy="187.333" r="4.742"/>
	<circle fill="#EDEDED" cx="420.277" cy="187.333" r="4.742"/>
	<circle fill="#EDEDED" cx="400.701" cy="187.333" r="4.742"/>
	<circle fill="#EDEDED" cx="440.256" cy="187.333" r="4.742"/>
	<circle fill="#EDEDED" cx="459.848" cy="187.333" r="4.742"/>
	<circle fill="#EDEDED" cx="499.128" cy="187.333" r="4.742"/>
	<circle fill="#EDEDED" cx="479.552" cy="187.333" r="4.742"/>
	<circle fill="#EDEDED" cx="519.088" cy="187.333" r="4.742"/>
	<circle fill="#EDEDED" cx="538.68" cy="187.333" r="4.742"/>
	<circle fill="#EDEDED" cx="577.96" cy="187.333" r="4.742"/>
	<circle fill="#EDEDED" cx="558.384" cy="187.333" r="4.742"/>
	<circle fill="#EDEDED" cx="282.573" cy="167.5" r="4.742"/>
	<circle fill="#EDEDED" cx="302.359" cy="167.5" r="4.742"/>
	<circle fill="#EDEDED" cx="341.639" cy="167.5" r="4.742"/>
	<circle fill="#EDEDED" cx="322.063" cy="167.5" r="4.742"/>
	<circle fill="#EDEDED" cx="361.599" cy="167.5" r="4.742"/>
	<circle fill="#EDEDED" cx="381.191" cy="167.5" r="4.742"/>
	<circle fill="#EDEDED" cx="420.471" cy="167.5" r="4.742"/>
	<circle fill="#EDEDED" cx="400.895" cy="167.5" r="4.742"/>
	<circle fill="#EDEDED" cx="440.451" cy="167.5" r="4.742"/>
	<circle fill="#EDEDED" cx="460.042" cy="167.5" r="4.742"/>
	<circle fill="#EDEDED" cx="499.323" cy="167.5" r="4.742"/>
	<circle fill="#EDEDED" cx="479.747" cy="167.5" r="4.742"/>
	<circle fill="#EDEDED" cx="519.283" cy="167.5" r="4.742"/>
	<circle fill="#EDEDED" cx="538.875" cy="167.5" r="4.742"/>
	<circle fill="#EDEDED" cx="578.155" cy="167.5" r="4.742"/>
	<circle fill="#EDEDED" cx="558.579" cy="167.5" r="4.742"/>
	<circle fill="#EDEDED" cx="125.098" cy="305.124" r="4.742"/>
	<circle fill="#EDEDED" cx="144.69" cy="305.124" r="4.742"/>
	<circle fill="#EDEDED" cx="183.97" cy="305.124" r="4.742"/>
	<circle fill="#EDEDED" cx="164.394" cy="305.124" r="4.742"/>
	<circle fill="#EDEDED" cx="203.93" cy="305.124" r="4.742"/>
	<circle fill="#EDEDED" cx="223.522" cy="305.124" r="4.742"/>
	<circle fill="#EDEDED" cx="262.802" cy="305.124" r="4.742"/>
	<circle fill="#EDEDED" cx="243.226" cy="305.124" r="4.742"/>
	<circle fill="#EDEDED" cx="125.098" cy="285.291" r="4.742"/>
	<circle fill="#EDEDED" cx="144.884" cy="285.291" r="4.742"/>
	<circle fill="#EDEDED" cx="184.165" cy="285.291" r="4.742"/>
	<circle fill="#EDEDED" cx="164.588" cy="285.291" r="4.742"/>
	<circle fill="#EDEDED" cx="204.125" cy="285.291" r="4.742"/>
	<circle fill="#EDEDED" cx="223.716" cy="285.291" r="4.742"/>
	<circle fill="#EDEDED" cx="262.997" cy="285.291" r="4.742"/>
	<circle fill="#EDEDED" cx="243.42" cy="285.291" r="4.742"/>
	<circle fill="#EDEDED" cx="125.098" cy="265.456" r="4.742"/>
	<circle fill="#EDEDED" cx="144.69" cy="265.623" r="4.742"/>
	<circle fill="#EDEDED" cx="183.97" cy="265.623" r="4.742"/>
	<circle fill="#EDEDED" cx="164.394" cy="265.623" r="4.742"/>
	<circle fill="#EDEDED" cx="203.93" cy="265.623" r="4.742"/>
	<circle fill="#EDEDED" cx="223.522" cy="265.623" r="4.742"/>
	<circle fill="#EDEDED" cx="262.802" cy="265.623" r="4.742"/>
	<circle fill="#EDEDED" cx="243.226" cy="265.623" r="4.742"/>
	<circle fill="#EDEDED" cx="125.098" cy="245.79" r="4.742"/>
	<circle fill="#EDEDED" cx="144.884" cy="245.79" r="4.742"/>
	<circle fill="#EDEDED" cx="184.165" cy="245.79" r="4.742"/>
	<circle fill="#EDEDED" cx="164.588" cy="245.79" r="4.742"/>
	<circle fill="#EDEDED" cx="204.125" cy="245.79" r="4.742"/>
	<circle fill="#EDEDED" cx="223.716" cy="245.79" r="4.742"/>
	<circle fill="#EDEDED" cx="262.997" cy="245.79" r="4.742"/>
	<circle fill="#EDEDED" cx="243.42" cy="245.79" r="4.742"/>
	<circle fill="#EDEDED" cx="125" cy="226.626" r="4.742"/>
	<circle fill="#EDEDED" cx="144.592" cy="226.626" r="4.742"/>
	<circle fill="#EDEDED" cx="183.873" cy="226.626" r="4.742"/>
	<circle fill="#EDEDED" cx="164.296" cy="226.626" r="4.742"/>
	<circle fill="#EDEDED" cx="203.833" cy="226.626" r="4.742"/>
	<circle fill="#EDEDED" cx="223.424" cy="226.626" r="4.742"/>
	<circle fill="#EDEDED" cx="262.705" cy="226.626" r="4.742"/>
	<circle fill="#EDEDED" cx="243.128" cy="226.626" r="4.742"/>
	<circle fill="#EDEDED" cx="125" cy="206.793" r="4.742"/>
	<circle fill="#EDEDED" cx="144.787" cy="206.793" r="4.742"/>
	<circle fill="#EDEDED" cx="184.067" cy="206.793" r="4.742"/>
	<circle fill="#EDEDED" cx="164.491" cy="206.793" r="4.742"/>
	<circle fill="#EDEDED" cx="204.027" cy="206.793" r="4.742"/>
	<circle fill="#EDEDED" cx="223.619" cy="206.793" r="4.742"/>
	<circle fill="#EDEDED" cx="262.899" cy="206.793" r="4.742"/>
	<circle fill="#EDEDED" cx="243.323" cy="206.793" r="4.742"/>
	<circle fill="#EDEDED" cx="125" cy="186.958" r="4.742"/>
	<circle fill="#EDEDED" cx="144.592" cy="187.125" r="4.742"/>
	<circle fill="#EDEDED" cx="183.873" cy="187.125" r="4.742"/>
	<circle fill="#EDEDED" cx="164.296" cy="187.125" r="4.742"/>
	<circle fill="#EDEDED" cx="203.833" cy="187.125" r="4.742"/>
	<circle fill="#EDEDED" cx="223.424" cy="187.125" r="4.742"/>
	<circle fill="#EDEDED" cx="262.705" cy="187.125" r="4.742"/>
	<circle fill="#EDEDED" cx="243.128" cy="187.125" r="4.742"/>
	<circle fill="#EDEDED" cx="125" cy="167.292" r="4.742"/>
	<circle fill="#EDEDED" cx="144.787" cy="167.292" r="4.742"/>
	<circle fill="#EDEDED" cx="184.067" cy="167.292" r="4.742"/>
	<circle fill="#EDEDED" cx="164.491" cy="167.292" r="4.742"/>
	<circle fill="#EDEDED" cx="204.027" cy="167.292" r="4.742"/>
	<circle fill="#EDEDED" cx="223.619" cy="167.292" r="4.742"/>
	<circle fill="#EDEDED" cx="262.899" cy="167.292" r="4.742"/>
	<circle fill="#EDEDED" cx="243.323" cy="167.292" r="4.742"/>
	<circle fill="#EDEDED" cx="282.67" cy="148.084" r="4.742"/>
	<circle fill="#EDEDED" cx="302.262" cy="148.084" r="4.742"/>
	<circle fill="#EDEDED" cx="341.542" cy="148.084" r="4.742"/>
	<circle fill="#EDEDED" cx="321.966" cy="148.084" r="4.742"/>
	<circle fill="#EDEDED" cx="361.502" cy="148.084" r="4.742"/>
	<circle fill="#EDEDED" cx="381.094" cy="148.084" r="4.742"/>
	<circle fill="#EDEDED" cx="420.375" cy="148.084" r="4.742"/>
	<circle fill="#EDEDED" cx="400.798" cy="148.084" r="4.742"/>
	<circle fill="#EDEDED" cx="440.354" cy="148.084" r="4.742"/>
	<circle fill="#EDEDED" cx="459.946" cy="148.084" r="4.742"/>
	<circle fill="#EDEDED" cx="499.226" cy="148.084" r="4.742"/>
	<circle fill="#EDEDED" cx="479.65" cy="148.084" r="4.742"/>
	<circle fill="#EDEDED" cx="519.186" cy="148.084" r="4.742"/>
	<circle fill="#EDEDED" cx="538.778" cy="148.084" r="4.742"/>
	<circle fill="#EDEDED" cx="578.058" cy="148.084" r="4.742"/>
	<circle fill="#EDEDED" cx="558.482" cy="148.084" r="4.742"/>
	<circle fill="#EDEDED" cx="282.67" cy="128.251" r="4.742"/>
	<circle fill="#EDEDED" cx="302.457" cy="128.251" r="4.742"/>
	<circle fill="#EDEDED" cx="341.737" cy="128.251" r="4.742"/>
	<circle fill="#EDEDED" cx="322.161" cy="128.251" r="4.742"/>
	<circle fill="#EDEDED" cx="361.697" cy="128.251" r="4.742"/>
	<circle fill="#EDEDED" cx="381.289" cy="128.251" r="4.742"/>
	<circle fill="#EDEDED" cx="420.569" cy="128.251" r="4.742"/>
	<circle fill="#EDEDED" cx="400.993" cy="128.251" r="4.742"/>
	<circle fill="#EDEDED" cx="440.548" cy="128.251" r="4.742"/>
	<circle fill="#EDEDED" cx="460.14" cy="128.251" r="4.742"/>
	<circle fill="#EDEDED" cx="499.42" cy="128.251" r="4.742"/>
	<circle fill="#EDEDED" cx="479.844" cy="128.251" r="4.742"/>
	<circle fill="#EDEDED" cx="519.38" cy="128.251" r="4.742"/>
	<circle fill="#EDEDED" cx="538.972" cy="128.251" r="4.742"/>
	<circle fill="#EDEDED" cx="578.252" cy="128.251" r="4.742"/>
	<circle fill="#EDEDED" cx="558.676" cy="128.251" r="4.742"/>
	<circle fill="#EDEDED" cx="282.67" cy="108.416" r="4.742"/>
	<circle fill="#EDEDED" cx="302.262" cy="108.583" r="4.742"/>
	<circle fill="#EDEDED" cx="341.542" cy="108.583" r="4.742"/>
	<circle fill="#EDEDED" cx="321.966" cy="108.583" r="4.742"/>
	<circle fill="#EDEDED" cx="361.502" cy="108.583" r="4.742"/>
	<circle fill="#EDEDED" cx="381.094" cy="108.583" r="4.742"/>
	<circle fill="#EDEDED" cx="420.375" cy="108.583" r="4.742"/>
	<circle fill="#EDEDED" cx="400.798" cy="108.583" r="4.742"/>
	<circle fill="#EDEDED" cx="440.354" cy="108.583" r="4.742"/>
	<circle fill="#EDEDED" cx="459.946" cy="108.583" r="4.742"/>
	<circle fill="#EDEDED" cx="499.226" cy="108.583" r="4.742"/>
	<circle fill="#EDEDED" cx="479.65" cy="108.583" r="4.742"/>
	<circle fill="#EDEDED" cx="519.186" cy="108.583" r="4.742"/>
	<circle fill="#EDEDED" cx="538.778" cy="108.583" r="4.742"/>
	<circle fill="#EDEDED" cx="578.058" cy="108.583" r="4.742"/>
	<circle fill="#EDEDED" cx="558.482" cy="108.583" r="4.742"/>
	<circle fill="#EDEDED" cx="282.67" cy="88.75" r="4.742"/>
	<circle fill="#EDEDED" cx="302.457" cy="88.75" r="4.742"/>
	<circle fill="#EDEDED" cx="341.737" cy="88.75" r="4.742"/>
	<circle fill="#EDEDED" cx="322.161" cy="88.75" r="4.742"/>
	<circle fill="#EDEDED" cx="361.697" cy="88.75" r="4.742"/>
	<circle fill="#EDEDED" cx="381.289" cy="88.75" r="4.742"/>
	<circle fill="#EDEDED" cx="420.569" cy="88.75" r="4.742"/>
	<circle fill="#EDEDED" cx="400.993" cy="88.75" r="4.742"/>
	<circle fill="#EDEDED" cx="440.548" cy="88.75" r="4.742"/>
	<circle fill="#EDEDED" cx="460.14" cy="88.75" r="4.742"/>
	<circle fill="#EDEDED" cx="499.42" cy="88.75" r="4.742"/>
	<circle fill="#EDEDED" cx="479.844" cy="88.75" r="4.742"/>
	<circle fill="#EDEDED" cx="519.38" cy="88.75" r="4.742"/>
	<circle fill="#EDEDED" cx="538.972" cy="88.75" r="4.742"/>
	<circle fill="#EDEDED" cx="578.252" cy="88.75" r="4.742"/>
	<circle fill="#EDEDED" cx="558.676" cy="88.75" r="4.742"/>
	<circle fill="#EDEDED" cx="125.098" cy="147.876" r="4.742"/>
	<circle fill="#EDEDED" cx="144.69" cy="147.876" r="4.742"/>
	<circle fill="#EDEDED" cx="183.97" cy="147.876" r="4.742"/>
	<circle fill="#EDEDED" cx="164.394" cy="147.876" r="4.742"/>
	<circle fill="#EDEDED" cx="203.93" cy="147.876" r="4.742"/>
	<circle fill="#EDEDED" cx="223.522" cy="147.876" r="4.742"/>
	<circle fill="#EDEDED" cx="262.802" cy="147.876" r="4.742"/>
	<circle fill="#EDEDED" cx="243.226" cy="147.876" r="4.742"/>
	<circle fill="#EDEDED" cx="125.098" cy="128.043" r="4.742"/>
	<circle fill="#EDEDED" cx="144.884" cy="128.043" r="4.742"/>
	<circle fill="#EDEDED" cx="184.165" cy="128.043" r="4.742"/>
	<circle fill="#EDEDED" cx="164.588" cy="128.043" r="4.742"/>
	<circle fill="#EDEDED" cx="204.125" cy="128.043" r="4.742"/>
	<circle fill="#EDEDED" cx="223.716" cy="128.043" r="4.742"/>
	<circle fill="#EDEDED" cx="262.997" cy="128.043" r="4.742"/>
	<circle fill="#EDEDED" cx="243.42" cy="128.043" r="4.742"/>
	<circle fill="#EDEDED" cx="125.098" cy="108.208" r="4.742"/>
	<circle fill="#EDEDED" cx="144.69" cy="108.375" r="4.742"/>
	<circle fill="#EDEDED" cx="183.97" cy="108.375" r="4.742"/>
	<circle fill="#EDEDED" cx="164.394" cy="108.375" r="4.742"/>
	<circle fill="#EDEDED" cx="203.93" cy="108.375" r="4.742"/>
	<circle fill="#EDEDED" cx="223.522" cy="108.375" r="4.742"/>
	<circle fill="#EDEDED" cx="262.802" cy="108.375" r="4.742"/>
	<circle fill="#EDEDED" cx="243.226" cy="108.375" r="4.742"/>
	<circle fill="#EDEDED" cx="125.098" cy="88.542" r="4.742"/>
	<circle fill="#EDEDED" cx="144.884" cy="88.542" r="4.742"/>
	<circle fill="#EDEDED" cx="184.165" cy="88.542" r="4.742"/>
	<circle fill="#EDEDED" cx="164.588" cy="88.542" r="4.742"/>
	<circle fill="#EDEDED" cx="204.125" cy="88.542" r="4.742"/>
	<circle fill="#EDEDED" cx="223.716" cy="88.542" r="4.742"/>
	<circle fill="#EDEDED" cx="262.997" cy="88.542" r="4.742"/>
	<circle fill="#EDEDED" cx="243.42" cy="88.542" r="4.742"/>
	<circle fill="#EDEDED" cx="282.67" cy="68.833" r="4.742"/>
	<circle fill="#EDEDED" cx="302.262" cy="68.833" r="4.742"/>
	<circle fill="#EDEDED" cx="341.542" cy="68.833" r="4.742"/>
	<circle fill="#EDEDED" cx="321.966" cy="68.833" r="4.742"/>
	<circle fill="#EDEDED" cx="361.502" cy="68.833" r="4.742"/>
	<circle fill="#EDEDED" cx="381.094" cy="68.833" r="4.742"/>
	<circle fill="#EDEDED" cx="420.375" cy="68.833" r="4.742"/>
	<circle fill="#EDEDED" cx="400.798" cy="68.833" r="4.742"/>
	<circle fill="#EDEDED" cx="440.354" cy="68.833" r="4.742"/>
	<circle fill="#EDEDED" cx="459.946" cy="68.833" r="4.742"/>
	<circle fill="#EDEDED" cx="499.226" cy="68.833" r="4.742"/>
	<circle fill="#EDEDED" cx="479.65" cy="68.833" r="4.742"/>
	<circle fill="#EDEDED" cx="519.186" cy="68.833" r="4.742"/>
	<circle fill="#EDEDED" cx="538.778" cy="68.833" r="4.742"/>
	<circle fill="#EDEDED" cx="578.058" cy="68.833" r="4.742"/>
	<circle fill="#EDEDED" cx="558.482" cy="68.833" r="4.742"/>
	<circle fill="#EDEDED" cx="282.67" cy="49" r="4.742"/>
	<circle fill="#EDEDED" cx="302.457" cy="49" r="4.742"/>
	<circle fill="#EDEDED" cx="341.737" cy="49" r="4.742"/>
	<circle fill="#EDEDED" cx="322.161" cy="49" r="4.742"/>
	<circle fill="#EDEDED" cx="361.697" cy="49" r="4.742"/>
	<circle fill="#EDEDED" cx="381.289" cy="49" r="4.742"/>
	<circle fill="#EDEDED" cx="420.569" cy="49" r="4.742"/>
	<circle fill="#EDEDED" cx="400.993" cy="49" r="4.742"/>
	<circle fill="#EDEDED" cx="440.548" cy="49" r="4.742"/>
	<circle fill="#EDEDED" cx="460.14" cy="49" r="4.742"/>
	<circle fill="#EDEDED" cx="499.42" cy="49" r="4.742"/>
	<circle fill="#EDEDED" cx="479.844" cy="49" r="4.742"/>
	<circle fill="#EDEDED" cx="519.38" cy="49" r="4.742"/>
	<circle fill="#EDEDED" cx="538.972" cy="49" r="4.742"/>
	<circle fill="#EDEDED" cx="578.252" cy="49" r="4.742"/>
	<circle fill="#EDEDED" cx="558.676" cy="49" r="4.742"/>
	<circle fill="#EDEDED" cx="282.67" cy="29.165" r="4.742"/>
	<circle fill="#EDEDED" cx="302.262" cy="29.332" r="4.742"/>
	<circle fill="#EDEDED" cx="341.542" cy="29.332" r="4.742"/>
	<circle fill="#EDEDED" cx="321.966" cy="29.332" r="4.742"/>
	<circle fill="#EDEDED" cx="361.502" cy="29.332" r="4.742"/>
	<circle fill="#EDEDED" cx="381.094" cy="29.332" r="4.742"/>
	<circle fill="#EDEDED" cx="420.375" cy="29.332" r="4.742"/>
	<circle fill="#EDEDED" cx="400.798" cy="29.332" r="4.742"/>
	<circle fill="#EDEDED" cx="440.354" cy="29.332" r="4.742"/>
	<circle fill="#EDEDED" cx="459.946" cy="29.332" r="4.742"/>
	<circle fill="#EDEDED" cx="499.226" cy="29.332" r="4.742"/>
	<circle fill="#EDEDED" cx="479.65" cy="29.332" r="4.742"/>
	<circle fill="#EDEDED" cx="519.186" cy="29.332" r="4.742"/>
	<circle fill="#EDEDED" cx="538.778" cy="29.332" r="4.742"/>
	<circle fill="#EDEDED" cx="578.058" cy="29.332" r="4.742"/>
	<circle fill="#EDEDED" cx="558.482" cy="29.332" r="4.742"/>
	<circle fill="#EDEDED" cx="282.67" cy="9.499" r="4.742"/>
	<circle fill="#EDEDED" cx="302.457" cy="9.499" r="4.742"/>
	<circle fill="#EDEDED" cx="341.737" cy="9.499" r="4.742"/>
	<circle fill="#EDEDED" cx="322.161" cy="9.499" r="4.742"/>
	<circle fill="#EDEDED" cx="361.697" cy="9.499" r="4.742"/>
	<circle fill="#EDEDED" cx="381.289" cy="9.499" r="4.742"/>
	<circle fill="#EDEDED" cx="420.569" cy="9.499" r="4.742"/>
	<circle fill="#EDEDED" cx="400.993" cy="9.499" r="4.742"/>
	<circle fill="#EDEDED" cx="440.548" cy="9.499" r="4.742"/>
	<circle fill="#EDEDED" cx="460.14" cy="9.499" r="4.742"/>
	<circle fill="#EDEDED" cx="499.42" cy="9.499" r="4.742"/>
	<circle fill="#EDEDED" cx="479.844" cy="9.499" r="4.742"/>
	<circle fill="#EDEDED" cx="519.38" cy="9.499" r="4.742"/>
	<circle fill="#EDEDED" cx="538.972" cy="9.499" r="4.742"/>
	<circle fill="#EDEDED" cx="578.252" cy="9.499" r="4.742"/>
	<circle fill="#EDEDED" cx="558.676" cy="9.499" r="4.742"/>
	<circle fill="#EDEDED" cx="125.098" cy="68.625" r="4.742"/>
	<circle fill="#EDEDED" cx="144.69" cy="68.625" r="4.742"/>
	<circle fill="#EDEDED" cx="183.97" cy="68.625" r="4.742"/>
	<circle fill="#EDEDED" cx="164.394" cy="68.625" r="4.742"/>
	<circle fill="#EDEDED" cx="203.93" cy="68.625" r="4.742"/>
	<circle fill="#EDEDED" cx="223.522" cy="68.625" r="4.742"/>
	<circle fill="#EDEDED" cx="262.802" cy="68.625" r="4.742"/>
	<circle fill="#EDEDED" cx="243.226" cy="68.625" r="4.742"/>
	<circle fill="#EDEDED" cx="125.098" cy="48.792" r="4.742"/>
	<circle fill="#EDEDED" cx="144.884" cy="48.792" r="4.742"/>
	<circle fill="#EDEDED" cx="184.165" cy="48.792" r="4.742"/>
	<circle fill="#EDEDED" cx="164.588" cy="48.792" r="4.742"/>
	<circle fill="#EDEDED" cx="204.125" cy="48.792" r="4.742"/>
	<circle fill="#EDEDED" cx="223.716" cy="48.792" r="4.742"/>
	<circle fill="#EDEDED" cx="262.997" cy="48.792" r="4.742"/>
	<circle fill="#EDEDED" cx="243.42" cy="48.792" r="4.742"/>
	<circle fill="#EDEDED" cx="125.098" cy="28.957" r="4.742"/>
	<circle fill="#EDEDED" cx="144.69" cy="29.124" r="4.742"/>
	<circle fill="#EDEDED" cx="183.97" cy="29.124" r="4.742"/>
	<circle fill="#EDEDED" cx="164.394" cy="29.124" r="4.742"/>
	<circle fill="#EDEDED" cx="203.93" cy="29.124" r="4.742"/>
	<circle fill="#EDEDED" cx="223.522" cy="29.124" r="4.742"/>
	<circle fill="#EDEDED" cx="262.802" cy="29.124" r="4.742"/>
	<circle fill="#EDEDED" cx="243.226" cy="29.124" r="4.742"/>
	<circle fill="#EDEDED" cx="125.098" cy="9.291" r="4.742"/>
	<circle fill="#EDEDED" cx="144.884" cy="9.291" r="4.742"/>
	<circle fill="#EDEDED" cx="184.165" cy="9.291" r="4.742"/>
	<circle fill="#EDEDED" cx="164.588" cy="9.291" r="4.742"/>
	<circle fill="#EDEDED" cx="204.125" cy="9.291" r="4.742"/>
	<circle fill="#EDEDED" cx="223.716" cy="9.291" r="4.742"/>
	<circle fill="#EDEDED" cx="262.997" cy="9.291" r="4.742"/>
	<circle fill="#EDEDED" cx="243.42" cy="9.291" r="4.742"/>
	<circle fill="#EDEDED" cx="7.002" cy="305.332" r="4.742"/>
	<circle fill="#EDEDED" cx="26.594" cy="305.332" r="4.742"/>
	<circle fill="#EDEDED" cx="65.874" cy="305.332" r="4.742"/>
	<circle fill="#EDEDED" cx="46.298" cy="305.332" r="4.742"/>
	<circle fill="#EDEDED" cx="85.834" cy="305.332" r="4.742"/>
	<circle fill="#EDEDED" cx="105.426" cy="305.332" r="4.742"/>
	<circle fill="#EDEDED" cx="7.002" cy="285.498" r="4.742"/>
	<circle fill="#EDEDED" cx="26.788" cy="285.498" r="4.742"/>
	<circle fill="#EDEDED" cx="66.068" cy="285.498" r="4.742"/>
	<circle fill="#EDEDED" cx="46.492" cy="285.498" r="4.742"/>
	<circle fill="#EDEDED" cx="86.028" cy="285.498" r="4.742"/>
	<circle fill="#EDEDED" cx="105.62" cy="285.498" r="4.742"/>
	<circle fill="#EDEDED" cx="7.002" cy="265.664" r="4.742"/>
	<circle fill="#EDEDED" cx="26.594" cy="265.83" r="4.742"/>
	<circle fill="#EDEDED" cx="65.874" cy="265.83" r="4.742"/>
	<circle fill="#EDEDED" cx="46.298" cy="265.83" r="4.742"/>
	<circle fill="#EDEDED" cx="85.834" cy="265.83" r="4.742"/>
	<circle fill="#EDEDED" cx="105.426" cy="265.83" r="4.742"/>
	<circle fill="#EDEDED" cx="7.002" cy="245.998" r="4.742"/>
	<circle fill="#EDEDED" cx="26.788" cy="245.998" r="4.742"/>
	<circle fill="#EDEDED" cx="66.068" cy="245.998" r="4.742"/>
	<circle fill="#EDEDED" cx="46.492" cy="245.998" r="4.742"/>
	<circle fill="#EDEDED" cx="86.028" cy="245.998" r="4.742"/>
	<circle fill="#EDEDED" cx="105.62" cy="245.998" r="4.742"/>
	<circle fill="#EDEDED" cx="6.904" cy="226.834" r="4.742"/>
	<circle fill="#EDEDED" cx="26.496" cy="226.834" r="4.742"/>
	<circle fill="#EDEDED" cx="65.776" cy="226.834" r="4.742"/>
	<circle fill="#EDEDED" cx="46.2" cy="226.834" r="4.742"/>
	<circle fill="#EDEDED" cx="85.736" cy="226.834" r="4.742"/>
	<circle fill="#EDEDED" cx="105.328" cy="226.834" r="4.742"/>
	<circle fill="#EDEDED" cx="6.904" cy="207" r="4.742"/>
	<circle fill="#EDEDED" cx="26.69" cy="207" r="4.742"/>
	<circle fill="#EDEDED" cx="65.971" cy="207" r="4.742"/>
	<circle fill="#EDEDED" cx="46.395" cy="207" r="4.742"/>
	<circle fill="#EDEDED" cx="85.931" cy="207" r="4.742"/>
	<circle fill="#EDEDED" cx="105.522" cy="207" r="4.742"/>
	<circle fill="#EDEDED" cx="6.904" cy="187.166" r="4.742"/>
	<circle fill="#EDEDED" cx="26.496" cy="187.332" r="4.742"/>
	<circle fill="#EDEDED" cx="65.776" cy="187.332" r="4.742"/>
	<circle fill="#EDEDED" cx="46.2" cy="187.332" r="4.742"/>
	<circle fill="#EDEDED" cx="85.736" cy="187.332" r="4.742"/>
	<circle fill="#EDEDED" cx="105.328" cy="187.332" r="4.742"/>
	<circle fill="#EDEDED" cx="6.904" cy="167.5" r="4.742"/>
	<circle fill="#EDEDED" cx="26.69" cy="167.5" r="4.742"/>
	<circle fill="#EDEDED" cx="65.971" cy="167.5" r="4.742"/>
	<circle fill="#EDEDED" cx="46.395" cy="167.5" r="4.742"/>
	<circle fill="#EDEDED" cx="85.931" cy="167.5" r="4.742"/>
	<circle fill="#EDEDED" cx="105.522" cy="167.5" r="4.742"/>
	<circle fill="#EDEDED" cx="7.002" cy="148.083" r="4.742"/>
	<circle fill="#EDEDED" cx="26.594" cy="148.083" r="4.742"/>
	<circle fill="#EDEDED" cx="65.874" cy="148.083" r="4.742"/>
	<circle fill="#EDEDED" cx="46.298" cy="148.083" r="4.742"/>
	<circle fill="#EDEDED" cx="85.834" cy="148.083" r="4.742"/>
	<circle fill="#EDEDED" cx="105.426" cy="148.083" r="4.742"/>
	<circle fill="#EDEDED" cx="7.002" cy="128.25" r="4.742"/>
	<circle fill="#EDEDED" cx="26.788" cy="128.25" r="4.742"/>
	<circle fill="#EDEDED" cx="66.068" cy="128.25" r="4.742"/>
	<circle fill="#EDEDED" cx="46.492" cy="128.25" r="4.742"/>
	<circle fill="#EDEDED" cx="86.028" cy="128.25" r="4.742"/>
	<circle fill="#EDEDED" cx="105.62" cy="128.25" r="4.742"/>
	<circle fill="#EDEDED" cx="7.002" cy="108.416" r="4.742"/>
	<circle fill="#EDEDED" cx="26.594" cy="108.583" r="4.742"/>
	<circle fill="#EDEDED" cx="65.874" cy="108.583" r="4.742"/>
	<circle fill="#EDEDED" cx="46.298" cy="108.583" r="4.742"/>
	<circle fill="#EDEDED" cx="85.834" cy="108.583" r="4.742"/>
	<circle fill="#EDEDED" cx="105.426" cy="108.583" r="4.742"/>
	<circle fill="#EDEDED" cx="7.002" cy="88.75" r="4.742"/>
	<circle fill="#EDEDED" cx="26.788" cy="88.75" r="4.742"/>
	<circle fill="#EDEDED" cx="66.068" cy="88.75" r="4.742"/>
	<circle fill="#EDEDED" cx="46.492" cy="88.75" r="4.742"/>
	<circle fill="#EDEDED" cx="86.028" cy="88.75" r="4.742"/>
	<circle fill="#EDEDED" cx="105.62" cy="88.75" r="4.742"/>
	<circle fill="#EDEDED" cx="7.002" cy="68.833" r="4.742"/>
	<circle fill="#EDEDED" cx="26.594" cy="68.833" r="4.742"/>
	<circle fill="#EDEDED" cx="65.874" cy="68.833" r="4.742"/>
	<circle fill="#EDEDED" cx="46.298" cy="68.833" r="4.742"/>
	<circle fill="#EDEDED" cx="85.834" cy="68.833" r="4.742"/>
	<circle fill="#EDEDED" cx="105.426" cy="68.833" r="4.742"/>
	<circle fill="#EDEDED" cx="7.002" cy="49" r="4.742"/>
	<circle fill="#EDEDED" cx="26.788" cy="49" r="4.742"/>
	<circle fill="#EDEDED" cx="66.068" cy="49" r="4.742"/>
	<circle fill="#EDEDED" cx="46.492" cy="49" r="4.742"/>
	<circle fill="#EDEDED" cx="86.028" cy="49" r="4.742"/>
	<circle fill="#EDEDED" cx="105.62" cy="49" r="4.742"/>
	<circle fill="#EDEDED" cx="7.002" cy="29.165" r="4.742"/>
	<circle fill="#EDEDED" cx="26.594" cy="29.332" r="4.742"/>
	<circle fill="#EDEDED" cx="65.874" cy="29.332" r="4.742"/>
	<circle fill="#EDEDED" cx="46.298" cy="29.332" r="4.742"/>
	<circle fill="#EDEDED" cx="85.834" cy="29.332" r="4.742"/>
	<circle fill="#EDEDED" cx="105.426" cy="29.332" r="4.742"/>
	<circle fill="#EDEDED" cx="7.002" cy="9.499" r="4.742"/>
	<circle fill="#EDEDED" cx="26.788" cy="9.499" r="4.742"/>
	<circle fill="#EDEDED" cx="66.068" cy="9.499" r="4.742"/>
	<circle fill="#EDEDED" cx="46.492" cy="9.499" r="4.742"/>
	<circle fill="#EDEDED" cx="86.028" cy="9.499" r="4.742"/>
	<circle fill="#EDEDED" cx="105.62" cy="9.499" r="4.742"/>
</g>
</svg>
