<?xml version="1.0" encoding="utf-8"?>
<!-- Generator: Adobe Illustrator 15.1.0, SVG Export Plug-In . SVG Version: 6.00 Build 0)  -->
<!DOCTYPE svg PUBLIC "-//W3C//DTD SVG 1.1//EN" "http://www.w3.org/Graphics/SVG/1.1/DTD/svg11.dtd">
<svg version="1.1" id="Layer_1" xmlns="http://www.w3.org/2000/svg" xmlns:xlink="http://www.w3.org/1999/xlink" x="0px" y="0px"
	 width="800px" height="650px" viewBox="0 0 800 650" enable-background="new 0 0 800 650" xml:space="preserve">
<g>
	<rect x="16.666" y="487.332" fill="#7A6D64" width="771.333" height="18.901"/>
	<rect x="80.081" y="489.815" fill="#5C524D" width="487.837" height="5.118"/>
	<path fill="#E2E2E2" d="M570.696,451.28c0,5.335-2.192,8.878-8.075,8.878H87.346c-4.104,0-10.044-1.295-10.044-8.878V172.708
		c0-4.915,4.025-8.769,8.95-8.769h475.366c5.198,0,9.078,3.995,9.078,8.769V451.28z"/>
	<path fill="#212121" d="M567.918,449.173c0,5.254-2.168,8.743-7.984,8.743H90.012c-4.058,0-9.931-1.275-9.931-8.743V174.818
		c0-4.84,3.979-8.636,8.849-8.636h470.012c5.14,0,8.977,3.935,8.977,8.636V449.173z"/>
	<path fill="#E2E2E2" d="M592.999,462.982c0,19.808-24.026,28.351-25.081,28.351H82.749c-5.447,0-27.75-9.782-27.75-28.847v-2.856
		c0-0.946,3.194-1.714,4.25-1.714h530.084c1.055,0,3.666,0,3.666,1.714V462.982z"/>
	<path fill="#4A494A" d="M550.628,436c0,4.75-2.004,7.903-7.379,7.903h-434.25c-3.75,0-9.177-1.153-9.177-7.903V188
		c0-4.375,3.677-7.807,8.177-7.807h434.333c4.75,0,8.296,3.557,8.296,7.807V436z"/>
	<circle fill="#898989" cx="323.999" cy="173.5" r="2.5"/>
	<linearGradient id="SVGID_1_" gradientUnits="userSpaceOnUse" x1="330.1919" y1="468.5391" x2="330.2555" y2="449.4647">
		<stop  offset="0" style="stop-color:#FFFFFF"/>
		<stop  offset="1" style="stop-color:#000000"/>
	</linearGradient>
	<path fill="url(#SVGID_1_)" d="M397.892,460.487c0,4.46-6.621,6.88-7.726,6.88H270.749c-1.104,0-8.191-2.344-8.191-6.503
		l-0.015-1.853c0-1.002-0.194-1.096,0.911-1.096h133.542c1.104,0,0.911,0.038,0.911,1.04L397.892,460.487z"/>
	<path fill="#C6C6C5" d="M550.628,192.542c0,0,0,0.135-0.503,0.135l-448.532-0.004c-1.969,0.004-1.747,0.048-1.754-0.271
		c-0.052-2.248-0.339-7.277,1.5-8.952c0.485-0.442,2.161-3.256,6.661-3.256h434.333c6.46,0.182,8.103,5.631,8.147,5.828
		C550.794,187.398,550.628,192.542,550.628,192.542z"/>
	
		<ellipse fill="none" stroke="#545554" stroke-width="18" stroke-miterlimit="10" cx="702.25" cy="442.625" rx="31.25" ry="32.625"/>
	<path fill="#545554" d="M715.667,492.75c0,1.104-0.761,1.411-1.104,1.438c-33.729,2.596-51.151,2.854-87.479,0.229
		c-0.687-0.05-0.749-0.562-0.749-1.667V376.633c0-1.104-0.152-2.061,0.491-2.016c29.958,2.083,56.092,2.542,87.842,0.008
		c1.102-0.088,1,0.406,1,2.008V492.75z"/>
	<ellipse fill="#454545" cx="671" cy="375.031" rx="44.667" ry="2.781"/>
	<polygon fill="#454546" points="717.575,425.5 715.667,423.834 715.667,403.334 717.575,404.208 	"/>
	<polygon fill="#454546" points="715.707,461.41 717.251,460.042 717.451,481.128 715.707,481.822 	"/>
	<g>
		<g>
			<path fill="#C4C4C3" d="M664.91,364.188c5.69-2.785,13.343-6.858,14.706-13.761c1.388-7.025-3.207-13.656-6.992-19.136
				c-4.412-6.386-8.463-13.635-3.785-20.812c3.904-5.99,6.672-11.294,7.164-18.612c0.139-2.063-3.8-1.546-3.922,0.268
				c-0.475,7.07-3.147,11.999-6.903,17.761c-2.885,4.427-3.107,8.699-1.307,13.638c2.707,7.425,8.716,13.043,11.351,20.504
				c3.198,9.06-4.946,14.301-12.048,17.776C660.805,362.972,662.918,365.162,664.91,364.188L664.91,364.188z"/>
		</g>
	</g>
	<g>
		<g>
			<path fill="#C4C4C3" d="M649.589,365.04c4.2-6.899,4.318-13.494,1.403-20.901c-2.929-7.439-7.066-14.062-5.271-22.381
				c0.314-1.458-3.579-0.83-3.863,0.485c-1.551,7.184,1.037,13.414,3.949,19.873c3.56,7.896,4.933,15.046,0.184,22.845
				C645.048,366.511,648.934,366.116,649.589,365.04L649.589,365.04z"/>
		</g>
	</g>
	<g>
		<g>
			<path fill="#C4C4C3" d="M687.5,365.82c9.604-3.835,12.229-10.975,10.45-20.793c-1.993-10.994-7.8-22.62-3.043-33.686
				c0.218-0.505-3.396-0.217-3.799,0.722c-3.846,8.945-0.87,18.604,1.466,27.543c2.655,10.161,4.531,21.129-7.264,25.839
				C682.961,366.384,686.656,366.157,687.5,365.82L687.5,365.82z"/>
		</g>
	</g>
</g>
</svg>
