<?xml version="1.0" encoding="utf-8"?>
<!-- Generator: Adobe Illustrator 15.1.0, SVG Export Plug-In . SVG Version: 6.00 Build 0)  -->
<!DOCTYPE svg PUBLIC "-//W3C//DTD SVG 1.1//EN" "http://www.w3.org/Graphics/SVG/1.1/DTD/svg11.dtd">
<svg version="1.1" id="Layer_1" xmlns="http://www.w3.org/2000/svg" xmlns:xlink="http://www.w3.org/1999/xlink" x="0px" y="0px"
	 width="800px" height="650px" viewBox="0 0 800 650" enable-background="new 0 0 800 650" xml:space="preserve">
<g>
	<rect x="16.666" y="487.332" fill="#7A6D64" width="771.333" height="18.901"/>
	
		<ellipse fill="none" stroke="#545554" stroke-width="18" stroke-miterlimit="10" cx="702.25" cy="442.625" rx="31.25" ry="32.625"/>
	<path fill="#545554" d="M715.667,492.75c0,1.104-0.761,1.411-1.104,1.438c-33.729,2.597-51.15,2.854-87.479,0.229
		c-0.688-0.05-0.749-0.562-0.749-1.667V376.633c0-1.104-0.152-2.061,0.491-2.016c29.958,2.083,56.092,2.542,87.842,0.008
		c1.102-0.088,1,0.406,1,2.008L715.667,492.75L715.667,492.75z"/>
	<ellipse fill="#454545" cx="671" cy="375.031" rx="44.667" ry="2.781"/>
	<polygon fill="#454546" points="717.575,425.5 715.667,423.834 715.667,403.334 717.575,404.208 	"/>
	<polygon fill="#454546" points="715.707,461.41 717.251,460.042 717.451,481.128 715.707,481.822 	"/>
	<g>
		<g>
			<path fill="#C4C4C3" d="M664.91,364.188c5.689-2.784,13.343-6.857,14.706-13.761c1.388-7.024-3.207-13.655-6.992-19.136
				c-4.412-6.386-8.463-13.635-3.785-20.812c3.904-5.989,6.672-11.293,7.164-18.611c0.139-2.063-3.8-1.546-3.922,0.268
				c-0.475,7.07-3.147,11.999-6.903,17.762c-2.885,4.427-3.106,8.698-1.307,13.638c2.707,7.425,8.716,13.043,11.351,20.504
				c3.198,9.06-4.945,14.301-12.048,17.776C660.805,362.972,662.918,365.162,664.91,364.188L664.91,364.188z"/>
		</g>
	</g>
	<g>
		<g>
			<path fill="#C4C4C3" d="M649.589,365.04c4.2-6.899,4.318-13.494,1.403-20.901c-2.93-7.438-7.066-14.062-5.271-22.381
				c0.314-1.458-3.579-0.83-3.862,0.485c-1.552,7.184,1.036,13.414,3.948,19.873c3.561,7.896,4.934,15.046,0.185,22.845
				C645.048,366.511,648.934,366.116,649.589,365.04L649.589,365.04z"/>
		</g>
	</g>
	<g>
		<g>
			<path fill="#C4C4C3" d="M687.5,365.82c9.604-3.835,12.229-10.976,10.45-20.793c-1.993-10.994-7.8-22.62-3.043-33.687
				c0.218-0.505-3.396-0.217-3.799,0.722c-3.847,8.945-0.87,18.604,1.466,27.544c2.654,10.16,4.531,21.129-7.265,25.839
				C682.961,366.384,686.656,366.157,687.5,365.82L687.5,365.82z"/>
		</g>
	</g>
</g>
</svg>
