<?xml version="1.0" encoding="utf-8"?>
<!-- Generator: Adobe Illustrator 15.1.0, SVG Export Plug-In . SVG Version: 6.00 Build 0)  -->
<!DOCTYPE svg PUBLIC "-//W3C//DTD SVG 1.1//EN" "http://www.w3.org/Graphics/SVG/1.1/DTD/svg11.dtd">
<svg version="1.1" id="Layer_1" xmlns="http://www.w3.org/2000/svg" xmlns:xlink="http://www.w3.org/1999/xlink" x="0px" y="0px"
	 width="800px" height="339.4px" viewBox="0 166.833 800 339.4" enable-background="new 0 166.833 800 339.4" xml:space="preserve">
<rect x="16.666" y="487.332" fill="#7A6D64" width="771.333" height="18.901"/>
<rect x="80.081" y="489.815" fill="#5C524D" width="487.837" height="5.117"/>
<path fill="none" stroke="#E2E2E2" stroke-width="6" stroke-miterlimit="10" d="M569.75,451.462c0,5.226-2.182,8.696-8.036,8.696
	H88.746c-4.084,0-9.996-1.269-9.996-8.696V178.589c0-2.839,5.75-8.589,11-8.589H558c5.174,0,11.75,6.574,11.75,11.25V451.462z"/>
<rect x="86.513" y="178.693" fill="#C6C6C5" width="473.987" height="15.807"/>
<path fill="none" stroke="#212121" stroke-width="12" stroke-miterlimit="10" d="M563.464,445.661
	c0.001,7.589,0.911,8.339-7.839,8.339H94.25c-3.984,0-9.75,1-9.75-8.339V183.986c0-4.616,3.906-8.236,8.688-8.236h461.463
	c5.047,0,8.813,3.753,8.813,8.236L563.464,445.661L563.464,445.661z"/>
<path fill="#E2E2E2" d="M592.999,462.982c0,19.808-24.026,28.351-25.081,28.351H82.749c-5.447,0-27.75-9.782-27.75-28.847v-2.856
	c0-0.946,3.194-1.714,4.25-1.714h530.084c1.055,0,3.666,0,3.666,1.714V462.982z"/>
<ellipse fill="#454545" cx="671" cy="375.031" rx="44.667" ry="2.781"/>
<circle fill="#898989" cx="326.499" cy="175.75" r="2.5"/>
<linearGradient id="SVGID_1_" gradientUnits="userSpaceOnUse" x1="361.1919" y1="336.4609" x2="361.2555" y2="355.5353" gradientTransform="matrix(1 0 0 -1 -31 805)">
	<stop  offset="0" style="stop-color:#FFFFFF"/>
	<stop  offset="1" style="stop-color:#000000"/>
</linearGradient>
<path fill="url(#SVGID_1_)" d="M397.892,460.487c0,4.46-6.62,6.88-7.726,6.88H270.749c-1.104,0-8.191-2.344-8.191-6.503
	l-0.015-1.854c0-1.002-0.194-1.096,0.911-1.096h133.542c1.104,0,0.911,0.038,0.911,1.04L397.892,460.487z"/>
<ellipse fill="none" stroke="#545554" stroke-width="18" stroke-miterlimit="10" cx="702.25" cy="442.625" rx="31.25" ry="32.625"/>
<path fill="#545554" d="M715.667,492.75c0,1.104-0.761,1.411-1.104,1.438c-33.729,2.597-51.15,2.854-87.479,0.229
	c-0.688-0.05-0.749-0.562-0.749-1.667V376.633c0-1.104-0.152-2.061,0.491-2.016c29.958,2.083,56.092,2.542,87.842,0.008
	c1.102-0.088,1,0.406,1,2.008L715.667,492.75L715.667,492.75z"/>
<polygon fill="#454546" points="717.575,425.5 715.667,423.834 715.667,403.334 717.575,404.208 "/>
<polygon fill="#454546" points="715.707,461.41 717.251,460.042 717.451,481.128 715.707,481.822 "/>
<g>
	<g>
		<path fill="#C4C4C3" d="M664.91,364.188c5.689-2.785,13.343-6.857,14.706-13.761c1.388-7.024-3.207-13.655-6.992-19.136
			c-4.412-6.386-8.463-13.635-3.785-20.812c3.904-5.99,6.672-11.294,7.164-18.612c0.139-2.063-3.8-1.546-3.922,0.268
			c-0.475,7.07-3.147,11.999-6.903,17.761c-2.885,4.427-3.106,8.699-1.307,13.638c2.707,7.425,8.716,13.043,11.351,20.504
			c3.198,9.06-4.945,14.301-12.048,17.776C660.805,362.973,662.918,365.162,664.91,364.188L664.91,364.188z"/>
	</g>
</g>
<g>
	<g>
		<path fill="#C4C4C3" d="M649.589,365.04c4.2-6.899,4.318-13.494,1.403-20.901c-2.93-7.438-7.066-14.062-5.271-22.381
			c0.314-1.458-3.579-0.83-3.862,0.485c-1.552,7.184,1.036,13.414,3.948,19.873c3.561,7.896,4.934,15.046,0.185,22.845
			C645.048,366.511,648.934,366.116,649.589,365.04L649.589,365.04z"/>
	</g>
</g>
<g>
	<g>
		<path fill="#C4C4C3" d="M687.5,365.82c9.604-3.836,12.229-10.976,10.45-20.793c-1.993-10.994-7.8-22.62-3.043-33.687
			c0.218-0.505-3.396-0.217-3.799,0.722c-3.847,8.945-0.87,18.604,1.466,27.542c2.654,10.162,4.531,21.129-7.265,25.84
			C682.961,366.384,686.656,366.157,687.5,365.82L687.5,365.82z"/>
	</g>
</g>
</svg>
